<?xml version="1.0" encoding="utf-8"?>
<!-- Generator: Adobe Illustrator 26.0.1, SVG Export Plug-In . SVG Version: 6.00 Build 0)  -->
<svg version="1.1" id="svg-logo_00000083076086847581348580000009583606970987892099_"
	 xmlns="http://www.w3.org/2000/svg" xmlns:xlink="http://www.w3.org/1999/xlink" x="0px" y="0px" viewBox="0 0 1000 300"
	 style="enable-background:new 0 0 1000 300;" xml:space="preserve">
<style type="text/css">
	.st0{fill:#FFFFFF;}
</style>
<g>
	<path class="st0" d="M9.1,255.4c0.5-1.3,0.8-2.1,1.3-4.2c0.8-2.9,1.6-5.8,4.2-7.4c-0.3-0.3-0.3-1.1,0.8-2.6
		c1.1-1.6,1.6-2.6,1.9-3.4c0.8-2.4,1.8-3.7,2.6-4.5c1.8-1.3,2.9-2.4,5-5.6c0.5-1.1,1.3-2.4,2.1-3.2c4.5-5.6,5.3-8.2,1.3-11.6
		c0.3-4.2-1.3-7.9-2.6-11.4c-1.1-2.1-1.3-3.2-1.9-4.8c-1.3-2.1-1.3-4.5-1.6-7.1c0-1.3,0-2.1-0.3-3.4c-0.5-1.9-0.3-3.7-0.3-5.8
		c0.3-2.6,0.3-3.7,0-5.6c-0.3-1.3-0.3-3.2,0.3-6.3c0.3-1.3,0.5-3.2,0.5-4.8c-0.3-3.4,1.1-6.3,2.4-9.5c0.8-1.8,1.6-4,2.1-5.6
		c0.5-1.8,1.1-3.2,2.4-5.8c0.8-1.3,1.6-2.9,1.9-3.7l6.9-11.6c0.8-2.1,2.4-3.4,4.5-4c2.9-0.5,4,0.3,3.7,4c-0.3,2.6-1.1,4-2.1,4.5
		c-4.5,4-6.9,8.7-9,13c-1.6,2.4-2.4,5-2.6,9.3c-2.9,6.1-5,11.9-4.2,18.8c0.3,2.4,0.3,4.8,0.3,7.1c-0.3,2.4-0.3,5,0,7.4
		c0,2.6,0.5,3.7,1.8,5.6c0.8,1.1,1.1,2.6,1.3,5.3c0,2.1,0.3,2.9,0.5,4.2c0,0,0.3,0.3,0.3,0.8c0.5,1.3,1.1,2.1,2.1,2.9
		c2.6,3.7,5.3,3.4,7.1-0.5c4-6.9,9.5-14.5,15.6-22.2c0.5-1.6,1.3-2.4,3.2-4.2c1.3-1.3,2.9-2.9,4-4.5c1.3-2.9,2.9-5,6.9-9
		c1.8-1.8,3.7-3.7,4.8-5.6c2.4-3.7,4.2-6.9,6.9-10c3.7-4.2,4-4.8,10.3-12.7c1.6-4.5,4-7.4,6.3-10.6c1.3-1.6,2.9-3.4,4-5
		c0.5-0.8,0.8-1.1,1.3-2.1c2.1-3.7,4.5-7.4,5.8-11.6c1.1-2.6,1.6-4.2,2.9-5c2.4-2.4,2.6-3.7,1.8-8.2c-0.3-2.6-1.1-5.8-1.8-8.7
		c-1.1-4.2-2.4-8.7-2.1-12.7c0-0.8,0-1.6,0.3-2.6c0-3.2,0.3-6.6,1.1-10l0.8-4c1.3-5.6,2.4-10.8,7.9-13.7c0,0,0-0.3,0.3-0.3
		c0.8-0.5,1.3-1.1,1.3-1.6c0.8-2.6,2.4-4,5.6-6.1c1.1-0.5,2.4-1.3,2.9-2.1c3.4-1.3,9.8-1.9,11.9-0.5c2.4,1.1,4.2,4,5.3,7.9
		c0.8,5.3-1.1,9.8-2.6,14c-0.8,2.4-1.6,4.2-3.2,8.2l-2.6,5.8c-0.5,1.6-1.1,2.6-2.1,4.2c-0.8,1.1-1.6,2.1-1.9,3.2
		c-0.8,1.3-1.3,2.1-2.6,4.8c-1.8,3.2-3.4,6.3-5.3,9.3c-1.1,1.6-1.6,2.9-2.4,5.3c-0.5,1.6-1.1,3.4-2.1,5c-0.8,2.4-0.5,4.8,1.3,8.7
		c1.9,2.4,2.6,5.3,2.4,8.2c-0.5,2.1,0,4.2,1.3,8.5c1.3,2.1,1.8,4.8,2.6,7.4l1.1,4.5c1.8,4.2,2.4,6.9,2.9,10c0.3,2.1,0.8,4.2,1.6,7.4
		c1.9,4.8,2.9,10,4.2,15.1c0.8,4,1.9,7.7,2.9,11.6c1.3,7.1,1.1,15.1,0.5,22.7c-0.5,8.5-2.6,16.1-4.8,23.8c-0.3,0.5-0.5,0.8-0.8,1.6
		c-1.8,3.4-4.2,7.9-9,10.6s-9,6.1-11.6,9.8c-1.3,1.9-3.2,2.9-5.8,3.2c-2.1,0.3-4,0.8-5.8,1.6c-1.6,0.5-3.2,1.1-4.5,1.3
		c-2.9,0.8-6.1,1.1-9.5,0.3c-8.2,0-13,0.3-16.7-1.6c-2.1-1.1-5.3-1.9-8.2-2.9c-7.4-2.1-10.3-3.4-13-6.1c-2.9-2.9-6.6-5.6-9.5-7.1
		c-1.3-0.5-2.9-2.6-3.4-4.5c-2.1-1.3-3.4-2.9-4.8-4.5c-2.6-2.1-5-2.4-5.8-0.3c-0.8,1.1-1.1,1.9-2.4,3.4c-1.3,1.6-2.9,3.7-3.7,5.8
		c-0.3,1.1-0.5,1.6-1.9,2.9c-0.8,0.8-1.8,1.9-2.6,3.2c0,0.3,0.3,0-0.3,0.5c-1.1,0.8-1.3,1.1-1.3,1.8c-1.1,3.2-4,8.2-6.3,11.4
		c-1.1,0.8-2.1,1.1-3.4,0.5C8.8,258.5,8.5,257.2,9.1,255.4z M92.6,249.8c2.9-0.8,4.2-1.1,5.6-0.8c5,0.8,9.5-0.5,11.9-3.2
		c1.1-0.8,2.1-1.6,3.4-1.8c6.6-1.6,11.4-5.3,13.7-11.4c0.3-0.8,0.8-1.3,1.3-2.1c3.4-2.6,4.8-3.7,6.6-7.1c1.6-4,2.4-8.2,2.6-15.1
		c0.5-4.5,1.1-9.8,1.1-14.3c0-1.9-0.3-3.2-1.1-6.1c-0.8-2.9-1.1-4.5-1.1-6.9c0-0.8,0-1.6-0.3-2.6c0-2.6,0-4.2-0.5-6.3
		c-0.5-2.4-1.3-5.3-2.1-7.9c-0.5-2.9-1.3-5.3-1.8-7.9c-0.5-4-1.6-6.3-2.6-8.7c-1.3-3.2-1.9-5.3-2.1-8.2c-0.3-2.1-1.1-4.5-2.1-6.6
		c-0.8-1.8-1.6-3.7-1.9-5.8c-0.3-5-1.6-9-3.7-12.7c-1.1-2.6-3.2-2.6-5-0.5c-2.1,3.2-4,6.6-5.6,10.6l-2.4,2.9c-2.4,2.6-3.4,4-3.4,5.3
		c-0.5,1.3-1.1,2.4-2.1,4c-1.1,1.6-2.1,3.2-2.4,4.5l-3.2,3.7c-2.4,2.1-4,3.7-5.3,6.3c-2.1,4.8-6.6,10-9.3,13
		c-4,5.6-7.1,9.5-11.9,15.1c-1.1,1.3-1.6,2.6-2.6,5c-0.8,1.9-1.6,3.7-2.6,4.8c-7.1,5.6-11.9,12.4-16.1,18.8c-2.1,2.9-4,5.8-5.8,8.2
		c-1.6,1.3-2.4,3.2-1.3,4.8c2.1,3.2,4.8,8.2,10.6,12.2c1.8,4.2,6.9,6.9,11.1,9.3c2.9,1.6,4.2,2.4,5.8,3.4l1.1,0.8
		c1.9,1.3,3.2,1.9,4.8,1.9c1.9,0,4,0.8,6.3,1.3c2.1,0.8,4.2,1.3,6.3,1.6C88.4,251.1,90.5,250.6,92.6,249.8z M123.8,85.6
		c0,0,0.3-0.3,0-0.3c0.8-1.1,1.3-2.1,2.6-4.5c2.1-3.4,4.5-7.9,5.3-9.8c0.5-0.8,0.8-1.3,1.3-3.2c0.5-1.3,1.1-2.9,1.9-4
		c3.7-5.6,6.6-13.2,8.2-21.4c0.3-2.1-1.1-2.9-3.2-2.4c-5-1.3-7.9,0.3-10.8,3.2c-3.7,1.3-6.9,5.6-6.3,8.7l-0.8,2.4
		c-4,6.3-5,15.9-2.9,28.3v2.1l0.3,0.3c-0.3,0,0,0.3,0,0.5c0.3,1.1,1.1,1.6,2.1,1.8C122.7,87.5,123.8,87,123.8,85.6z"/>
	<path class="st0" d="M250.2,190.6c-0.3,0.3-0.3,0.5-0.3,0.8l-0.3,0.3c-0.8,1.6-1.1,2.4-1.3,2.4l-9.3,12.7c-2.1,2.9-3.7,4.2-6.9,6.1
		c-0.3,0.3-1.1,0.5-1.3,0.5c-4.8,3.2-6.9,3.4-10.3,4.2c-1.3,0-2.9,0.5-4.5,0.8h-2.6c-0.8-0.3-1.3-0.3-1.8-0.3
		c-6.9-1.1-9.3-3.4-13.5-9.8c-0.3-0.5-0.8-1.3-1.3-1.9c-0.3-0.5-2.4-0.8-3.4-0.5c-1.1,1.1-1.8,1.6-4,3.2l-3.7,2.9
		c-0.5,0.3-0.8,0.3-1.3,0.8c-1.1,0.8-2.1,1.6-3.2,1.9c-5,3.2-9,2.9-13.7-0.8c-2.1-1.6-2.9-2.9-2.6-5c0-1.6-0.3-2.9-0.3-4
		c-0.3-2.4-0.3-3.7,0.5-6.1l0.8-2.6c1.3-3.4,1.8-5,1.6-7.1c-0.3,0-0.3-0.8,0.5-1.9c2.1-3.4,4.2-6.9,6.1-10.8c2.4-3.7,4-4.8,8.2-6.9
		c0.8-1.1,1.1-1.3,2.9-2.4c0.8-0.3,2.1-0.8,2.6-1.6c2.1-1.6,3.4-1.8,5.6-1.6c7.1,1.1,11.1,4,13.7,9.5c0,0.5,0.5,1.1,0.8,1.6
		c0.5,1.1,0.8,1.6,0.8,2.9c-0.3,1.6-1.3,2.6-2.4,2.9c-1.6,0.3-2.9-0.5-3.2-2.1c-0.3-0.8-0.5-1.3-1.3-2.4c-0.5-0.5-0.8-0.8-0.8-1.6
		c-1.1-2.9-2.9-4-6.9-4.2c-4.2,0-7.4,1.3-9.5,3.7c-0.8,1.1-1.3,1.6-2.6,2.6c-1.3,1.1-2.6,2.4-3.7,4.2c-0.5,0.8-0.5,1.1-1.3,1.9
		c-1.8,2.4-2.4,3.2-2.4,4.8c0,0.8-0.3,1.6-0.5,2.1c-3.2,4.5-3.4,6.9-3.4,10.6c0,1.1-0.3,2.1-0.3,3.4c0,0.8,0.3,1.6,0.5,2.9
		c0,0.5,0.3,1.1,0.3,1.9c0.3,2.4,4.2,4.2,6.6,3.2c2.6-1.3,5.3-2.6,6.9-4.8c1.3-2.1,2.4-3.2,4-4.5c1.8-1.3,3.7-3.2,5.3-6.9l1.1-2.6
		c0.5-0.8,1.1-1.9,1.3-2.6c0.8-1.3,1.8-2.1,4-2.9c0.5-0.3,1.8,0.8,1.8,1.6c0.3,2.6,0.5,4,0,5c-1.3,5.3-0.8,9.8,2.1,14
		c1.3,2.6,4.5,4.8,8.2,5.3c1.8-0.3,3.4-0.5,5-1.1c3.4-0.5,9.3-1.1,14.8-6.9l3.2-3.2c1.9-1.3,3.7-2.6,5-4.8c0.5-1.1,1.1-1.3,1.9-2.9
		c0.8-1.6,1.8-3.2,2.9-4.5c0.3-0.5,0.5-0.8,1.1-1.3c0.3-0.5,0.8-1.1,1.1-1.3c0.5-0.8,1.6-0.5,2.9,0.5
		C250.7,188.5,250.7,189.5,250.2,190.6z"/>
	<path class="st0" d="M240.4,218.6c-0.8-0.8-1.1-1.6-0.8-2.4c0.8-2.4,1.3-4.2,1.9-8.5c0.8-4,1.6-8.2,3.7-11.9c0-0.5,0-1.1,0.3-2.1
		c0.5-1.3,0.5-1.6,0.5-2.1c-0.3-1.6,0.3-3.7,2.1-7.9c1.6-4.2,2.1-6.3,2.1-7.9c0-1.3,1.6-3.2,2.6-4.2c0.3-0.8,0.8-1.1,2.1-0.8
		c1.1,0.3,1.9,1.1,2.1,2.1c0,0.5,0.3,1.1,0.3,1.3c0.5,1.9,0.3,2.6,0,2.9c-0.3,0.8-0.5,1.1-1.3,2.6c-2.4,3.4-2.9,5.3-2.1,7.1
		c0,0-1.6,4.5-1.8,4.8c-1.6,2.4-2.6,5.8-2.4,7.1c0,1.8,0.3,2.1,2.4,2.9c0-0.3,2.6-1.6,4.8-4.2c0.5-0.5,0.5-0.8,1.3-1.6
		c0.8-0.5,1.8-1.6,2.1-2.4c3.2-5.8,11.1-15.6,15.1-19c3.4-2.9,6.9-3.2,10.6-0.8c1.6,0.8,2.4,2.1,1.6,3.4c-0.8,2.1-1.6,4.8-3.2,11.4
		c-0.5,2.6-1.1,5-1.6,6.6c-0.8,1.3,2.1,1.9,2.6,0.8c3.2-1.6,6.1-4.5,11.4-10.8l3.4-4.5c3.4-2.9,6.1-5.3,9.8-6.9l6.1-3.7
		c1.3-1.1,2.1-0.8,4,0.5c1.1,0.8,1.1,1.3,1.1,1.6c0.3,2.9,0,5-1.3,6.9c-3.7,5.3-8.2,15.9-9.8,21.7c-0.5,1.6-0.5,2.6-1.1,5.6
		c-0.3,2.1,0.8,4,3.4,5.8c3.4,1.9,6.6,1.9,9.5,0.5c4-1.6,8.5-3.4,12.4-7.1c2.1-1.6,3.7-2.9,5.6-3.7c4.2-2.4,6.3-4,9.3-8.7
		c1.1-1.6,1.8-2.4,3.2-3.7c0.5-0.3,1.1-1.1,1.6-1.3c1.9-1.8,2.4-2.1,2.9-1.3c0.8,0.8,1.3,3.4,0.8,3.7c-0.3,0.5-0.8,1.1-1.1,1.8
		l-1.1,1.6c-1.1,1.3-1.8,2.1-3.7,4c-2.6,2.9-5.3,5.6-8.5,8.2c-6.6,5.3-11.1,8.7-19.6,11.1c-4,1.1-7.7,1.1-11.9,0.5
		c-4-0.3-5.8-2.1-6.9-7.1c-0.8-2.9-1.1-5.3-1.1-7.4c0.3-1.9,0.5-3.7,1.1-5.6l0.8-3.7l2.4-7.9v-0.3c0-0.5-0.5-1.1-1.3-1.6h-0.3
		c-0.5-0.3-1.6,0-1.8,0.3c-1.3,1.1-2.1,2.1-4.5,5.3c-2.4,3.4-3.4,4.8-4,5.3c-0.8,0.8-1.1,1.3-2.6,2.6c-1.9,1.8-4,3.7-5.6,5.6
		c-1.9,2.1-3.7,3.2-9.3,5.3c-1.6,0.8-2.4,0.8-4,0c-0.8-0.3-1.6-1.1-1.3-1.6c0.3-1.1,0.3-1.9,0.3-3.2c0.3-1.6,0.3-2.9,1.1-4.5
		c1.9-4.2,4.8-13.5,6.1-17.4c0-0.3,0-0.3-0.3-0.8c0,0,0-0.3-0.8-0.5c-0.5-0.3-0.8-0.3-1.1-0.3c-0.5-0.3-1.6,0-2.1,0.3
		c-4.5,4.8-12.7,15.6-16.1,20.6c-2.9,4-6.1,8.2-9,11.9c-2.1,2.9-3.4,5-6.1,6.3C243.8,220.2,242.5,220.2,240.4,218.6z"/>
	<path class="st0" d="M328.7,267l0.8-3.4l4.5-11.4l0.5-0.8c0.8-1.3,1.1-1.8,1.1-2.6c0-5,1.9-9,4-13c0.5-1.1,0.8-1.6,0.5-3.4
		s0-2.6,0.5-3.2c0.5-0.8,0.8-1.3,1.1-2.4l0.8-1.9l0.5-0.8c0.8-1.3,1.1-1.9,1.1-2.6c0-4.8,1.6-9,3.2-13.2c1.1-2.6,2.1-5.6,2.6-8.2
		c0.3-1.9,0.8-3.2,1.8-5.6c1.1-2.9,2.4-6.1,2.1-9.3c2.4-6.1,3.2-9.3,3.4-14.3c0.3-2.4,1.1-4,2.1-5.8c0.8-1.3,1.6-3.2,2.1-4.5
		c0.3-1.1,1.6-1.3,2.6-1.1c1.6,0.3,2.9,1.9,2.6,3.2c0,4.8-1.3,10.8-3.7,15.1c-0.3,1.3-0.5,1.8-0.5,2.9c-0.5,2.1-1.1,3.4-2.1,5.8
		c-1.1,1.9-2.1,4-2.9,6.6l-2.6,8.7c-0.5,2.6-1.3,5.6-2.1,7.7v0.3c-0.3,1.6-0.5,2.9,0.8,3.2c1.1,0.5,3.2-0.3,4-1.3l0.8-0.8
		c0-0.3,0-0.5,0.3-0.5c0.5-1.1,1.1-1.6,2.1-3.4l2.1-3.7c1.3-1.9,2.4-3.4,4.8-6.1c0.3-0.5,0.5-0.5,0.8-1.1c1.1-1.1,1.8-1.9,1.8-2.6
		c1.1-2.1,2.6-3.7,6.1-7.9c1.8-1.9,3.7-4.2,4.8-5.6c4.2-5.6,8.2-8.2,13.2-9c1.9-1.6,2.9-1.8,6.9-0.5l2.1,0.5c2.1,0.5,4,2.4,5.6,5.6
		c1.6,2.6,2.4,9.5,1.1,12.7c-3.4,9-9,14.5-18.5,18.5c-1.3,0.8-1.6,1.9-1.1,3.2c0,0.5,1.6,1.1,2.4,1.3c6.3,0.8,12.7,1.6,19.3-0.8
		c2.1-1.3,4-2.1,7.7-3.4c6.3-2.9,14.3-9.3,17.2-13.7c1.3-1.9,1.8-2.6,3.4-4c1.1-0.8,2.1-1.9,2.9-2.6c1.1-0.8,1.6-1.1,2.9-0.8
		c0.8,0,1.8,2.1,1.1,3.4c-2.1,4.8-4.8,6.6-7.9,9.8l-7.7,6.9c0,0.5-0.3,0.5-0.8,1.1c-7.9,4.8-14.5,7.7-23,9.8c-2.6,0.5-5,0.8-7.7,0.8
		c-1.1,0.3-1.9,0.3-2.6,0.3c-4.8,0-9.5-1.6-14.3-2.9c-3.7-1.1-4.8-1.9-6.1-3.7c-1.6-1.9-2.1-2.9-1.6-4c1.1-1.6,2.4-2.6,4-2.6h0.5
		c0,0,0,0.3,0.3,0.3c1.8,1.1,9.8-0.5,11.4-2.6c0.8-1.1,1.6-1.9,4-3.7c3.2-2.6,7.7-6.1,9.3-11.1c0.8-2.6-0.3-6.9-2.1-10.6
		c0-0.3-1.1-1.1-1.8-1.3c-2.6-0.8-5.8-0.5-7.9,0.5c-4.5,2.1-7.9,5-11.1,9.5c-3.7,5-9.3,12.4-11.6,17.7c-2.9,5.8-6.6,10.8-12.7,18.8
		c-1.3,1.8-2.9,4-3.7,6.1c-1.1,3.2-2.4,5.8-4.2,7.4c-1.1,1.1-1.9,2.1-2.1,3.2c-1.1,5-3.4,9-5.6,13.5c-1.8,3.2-3.7,6.9-5,10.3
		c-0.8,1.9-1.9,3.7-2.6,5c-1.3,1.6-2.9,1.6-4.5,0.5C329.2,268.6,328.7,267.8,328.7,267z"/>
	<path class="st0" d="M501.6,191.9l-2.6,4c-2.6,4.2-4.5,7.4-7.9,11.9c-1.3,1.9-2.9,3.2-7.4,6.1c-1.3,1.1-3.2,2.1-4.2,3.4
		c-5.8,2.6-12.2,5-17.7,4.5h-1.6c-2.4-0.3-6.3-1.3-9.3-2.9c-3.7-1.6-4.8-2.9-6.1-5.3l-1.1-2.4c-0.5-0.8-0.8-1.9-1.1-2.9
		c-0.5-1.9-0.8-2.6-1.6-3.7c0.3-2.1,0.3-4,0.3-6.1c0-3.2,0-6.3,1.3-9c1.3-3.7,1.8-6.3,1.6-9.8c0-2.9-0.3-5.6,1.6-7.4
		c-0.5-4,0.8-7.1,2.4-10.6c0.3-0.5,0.5-1.3,0.5-1.9c0.5-0.8,0.8-1.3,0.8-1.8c-0.8-5.3,1.1-9.8,3.2-14.3c0.5-1.6,1.3-3.4,1.9-4.8
		l0.8-1.8c1.3-3.4,1.6-5,1.3-6.9c0-0.8,0.3-1.9,0.5-1.9c1.8-2.4,2.6-4.2,4-8.7c0-0.8,0.3-1.6,0.5-2.1c0.3-1.1,0.8-1.9,1.8-3.7
		c1.1-1.9,2.4-3.7,2.9-5.6c0.5-1.9,1.3-3.2,4-5.8c0.5-0.5,1.1-1.3,1.6-1.6c0.5-0.5,0.8-0.8,2.4-1.1c0.8-0.3,1.6,0,2.9,0.3
		c4.5,0.8,6.6,4.2,5.6,9.3c0,0.3,0,0.8-0.3,1.1c-0.3,2.1-0.3,2.9,0,4.5c0.3,0,0.3,1.3,0.3,1.9c-1.6,2.6-2.6,5.6-2.6,8.7
		c-2.6,3.4-2.9,7.4-3.4,11.4c-0.3,0.8-0.8,1.6-1.8,3.4c-0.3,0.5-0.3,0.5-0.3,0.8c-1.6,2.4-2.4,4.2-3.7,8.5l-1.8,4.2
		c-3.2,8.2-5.8,14.3-6.6,15.6c-0.8,1.1-1.1,1.8-2.4,4.2c-2.1,3.7-4.5,8.2-6.6,11.4c-0.5,1.1-1.1,1.6-2.4,3.2c-2.9,3.7-4,5.3-3.7,7.7
		c0,1.6,0,6.6,0.5,9c0.3,1.1,0.5,2.1,0.5,3.4c0,2.4,1.1,4,3.4,5c0.5,0,1.3,0.5,2.1,1.3c4,2.4,5.8,2.1,7.9,1.8h2.1
		c7.1,0,16.4-5,21.7-11.4c0.8-0.8,1.1-1.3,2.4-2.6c2.4-2.6,5.3-5.6,6.3-8.7c0.3-0.8,0.5-1.3,1.6-2.6c0.8-1.1,1.3-1.6,1.6-2.1
		c1.6-2.1,2.1-2.4,3.2-1.6C502.4,188.2,502.7,190.8,501.6,191.9z M450.3,178.4c2.1-1.6,6.3-7.7,8.5-13.7c1.6-2.6,5.6-13.5,6.6-16.1
		c0.8-1.8,1.3-3.4,2.4-6.6c0.8-2.9,1.8-5.8,3.2-8.2c1.6-2.6,2.4-4.5,3.7-9.3c0.3-1.6,0.8-3.2,1.3-4.5c0.5-1.6,0.8-3.2,1.3-6.3
		c0.3-0.8,0.5-1.8,0.5-2.6c-0.5-0.5-0.3,0-0.3-0.5c-0.3-0.5-1.1-0.8-1.6-0.8h-0.3c-0.5-0.3-1.9,0-1.9,0.3c-1.8,1.3-3.7,2.6-4.2,5
		c-0.5,1.9-1.1,2.9-2.6,5.6c-1.6,2.9-3.4,6.1-3.4,9.8c-0.3,0.3-0.3,0.5-0.3,0.5c-1.8,1.8-2.1,4.2-2.6,6.3l-2.1,6.6
		c-1.8,4.8-4,10.6-4.5,16.7c0,0.5-0.3,0.8-0.8,3.2C450.6,171.5,449,179.2,450.3,178.4z"/>
	<path class="st0" d="M497.9,208.6c-2.1-4.8-2.6-7.7-2.1-10.6c0.3-1.8,0.5-3.2,0.8-5.8c0.3-3.4,0.5-6.6,2.1-9.8
		c0.3-1.1,0.5-1.6,1.3-3.4c0.3-1.1,0.8-2.4,1.3-3.4c1.6-4,3.7-6.9,6.1-9c4-3.4,7.1-4.8,11.1-4.5c1.6,0,2.9,0.5,4.5,2.1
		c2.9,2.9,3.4,5.3,1.6,8.2c-1.1,2.6-1.6,4.5-1.6,6.1c-0.8,6.3-4.8,9.8-9.3,13.5c-1.1,0.5-1.6,1.1-4,1.8c-6.3,2.6-7.9,1.3-6.3,11.6
		c1.1,2.9,3.2,5,7.1,6.9c7.9,3.4,12.2,2.6,18,0l2.6-1.1c1.6-0.5,2.9-1.3,4.5-1.6c0.8-0.3,1.9-0.8,2.6-1.3c2.1-1.6,3.4-2.6,6.3-4.5
		c3.4-2.1,6.9-4.2,10.3-8.5l4-5c0.8-1.3,2.6-2.9,3.4-3.7c0.8-0.5,1.3-0.5,2.4,0.5c0.5,0,0.8,1.3,0.3,2.6c-0.3,0.3-0.5,0.8-0.8,1.6
		c-0.5,1.3-0.8,2.1-1.1,2.1c-1.9,2.4-2.6,3.4-4.8,5.6c-0.8,1.1-2.1,2.4-3.4,3.7c-2.9,3.4-6.1,6.1-9.8,7.7c-2.1,1.1-4.5,1.9-5.8,3.4
		c-7.4,4.5-11.6,4.8-19,5.6h-1.3C510.6,219.9,501.6,215.2,497.9,208.6z M508,189.5c3.2-1.3,5.6-3.7,6.3-6.1c0.5-1.6,1.1-2.4,1.9-3.7
		c2.1-2.6,2.6-4,2.6-5.8v-1.3c0-2.9-1.1-4.8-3.2-4.8c-1.3-0.3-2.6,0.3-3.7,1.6c-0.8,0.5-0.8,0.8-0.8,0.8c-1.6,1.3-2.4,2.4-3.7,5
		c-0.5,1.1-0.3,0.8-0.5,1.1c-1.3,1.8-1.8,3.4-2.4,7.1c-0.3,1.3-0.5,2.9-1.1,4.2c0,0.5,0,1.3,0.3,1.8
		C503.7,190.8,507.2,190.3,508,189.5z"/>
	<path class="st0" d="M680.9,261.4c-4.2,0.5-7.9-0.3-12.2-1.3c-2.4-0.5-4.5-1.1-7.1-1.3c0.3,0,0,0-0.3-0.3l-0.8-0.5l-3.2-1.9
		c-4.8-2.6-6.9-3.7-9.5-5.3l-1.6-1.3c-3.7-2.6-5.3-4.2-6.3-6.9c-0.8-1.1-1.6-1.9-2.4-2.4c-3.4-2.4-5.6-6.3-7.9-10
		c-1.1-1.8-1.3-2.6-2.1-3.7l-1.3-2.4c-0.8-1.9-1.3-2.6-2.1-3.7c-2.4-3.2-3.4-7.7-2.9-12.7c0.3-2.6,0.3-5.3,0.3-7.9
		c-0.3-7.4,0-14.3,1.1-20.4c0.5-3.4,0.8-6.6,1.1-10l0.8-7.4c0.3-1.9,0.5-3.4,1.1-5.3c0.3-1.9,0.8-3.7,1.1-5.6
		c0.3-2.1,1.1-3.7,1.9-5.5c0.8-1.3,1.3-2.6,1.8-4c0-0.3,0-0.3,0.3-0.8c0.8-1.6,0.8-2.4,0-4c-0.3,0,0-1.3,0.3-1.3l4.8-9
		c2.9-6.1,6.1-12.7,9.3-18.5c5-8.5,9.8-17.2,16.4-23.8c0.8-1.1,1.3-1.6,2.1-3.2c6.6-9.3,13.2-17.2,23.3-23c2.9-4,6.1-5.6,10-7.4
		c1.9-1.1,4-1.9,5.8-2.9l0.8-0.5c1.3-1.1,2.1-1.6,3.2-1.6c1.9-0.3,3.7-1.1,6.3-2.1c3.2-1.3,6.3-2.4,9.3-2.1c1.9,0.3,3.4,0,5,0h2.4
		c2.4,0,3.7,0.3,5,1.1c3.4,1.6,6.1,2.4,8.7,2.9c5,1.3,8.2,2.9,11.6,5.3c1.1,0.8,2.4,2.1,2.9,3.7c0.3,1.1,1.1,1.9,2.6,3.2
		c1.1,1.1,1.6,1.8,1.9,2.9c0.3,2.6,1.9,5,3.2,7.4c2.1,4.2,2.6,8.5,1.3,12.4c-0.3,1.1-0.3,1.6-0.3,3.2c-0.3,0.5-0.3,1.1-0.3,1.8
		c0,0.8,0,1.3,0.3,2.6c0.3,1.1,0.3,1.8,0.3,2.4c-0.3,2.4-0.8,4.5-1.9,5.6l-2.6,6.3c-2.4,5-4.8,10.3-7.7,14.5
		c-2.1,2.9-3.4,5.3-6.1,6.6c-2.6,1.3-5,3.2-6.6,5.3c-2.9,3.7-6.6,4.8-10.6,6.3c-0.8,0.5-1.3,0.5-3.2,0.8c-1.6,0.3-3.4,0.8-4.8,1.6
		c-5.8-1.3-10.8-1.8-14.5-6.6c-0.8-0.8-1.6-2.4-2.4-3.4l-1.1-1.6c0,0-0.3-0.5-0.3-1.8c0.3-1.9,0-3.7,0-5.6v-2.6v-2.6
		c0.3-2.4,0.3-3.4-0.3-4.8c2.1-5.3,2.9-6.9,5.8-7.9c2.9-3.4,5.6,1.3,3.7,6.6c-0.3,1.6-0.5,2.6-1.1,4c0,0.5-0.3,0.8-0.3,1.1
		c-1.1,2.4-1.3,4.8-0.8,9.8c0,4.5,3.7,8.2,8.2,8.2c3.7,0.3,7.7,0.3,10.8-2.4c1.3-1.1,2.9-1.8,5.3-2.4c2.9-1.3,5-2.9,6.1-5
		c0.8-2.4,2.4-4.5,4.2-5.3c3.4-1.8,5-4.8,6.1-7.1c2.4-4.5,5-9.3,4.5-14.8c-0.3-0.5-0.3-1.3,0.3-2.9c0-0.5,0.3-0.8,0.5-1.6
		c1.6-3.7,1.8-5.6,1.3-7.9c-0.3-1.3-0.3-2.6-0.3-4.2c0-2.1,0-2.9-0.3-4.5c-1.6-7.9-5.8-13.5-13.2-18.2c-6.9-4-13.2-5.8-19-5.3h-1.1
		c-13.7-1.1-24.9,5.6-33.8,13c-7.9,6.3-15.3,13.5-21.4,21.1c-0.5,0.5-0.5,0.8-1.1,1.3c-1.9,2.4-4,4.8-5,7.4c-1.8,3.7-4,7.4-6.9,9.8
		c-0.5,0.5-1.1,1.1-1.3,1.6c-1.3,4-4,7.1-6.6,10c-1.3,1.6-2.1,2.9-3.4,6.1c-0.8,1.3-1.3,2.9-2.1,4.2c-1.3,2.1-1.9,3.7-2.4,7.4
		l-0.8,4c0,0.5,0,0.5-0.3,1.1c-0.3,2.1-0.8,4-2.6,4.5c-0.8,0.5-1.3,1.6-1.3,2.1c-0.3,2.1-1.1,4-1.6,6.1c-0.8,1.6-1.6,3.7-1.9,5.3
		c-0.3,1.1-0.3,1.6-0.8,3.4c-0.5,1.8-0.8,4-1.6,5.8c-2.1,6.6-2.1,13.2-1.9,20.1v4.5c0,1.3,0,2.6,0.3,4c0.3,3.4,0.5,6.6-1.1,9.8
		c-0.3,0.8-0.3,1.3,0,2.1c1.3,3.2,2.1,6.6,2.9,9.8c0.8,4.2,1.3,6.1,2.1,8.5c0,0.5,0.3,1.1,0.5,1.9c1.9,1.8,3.2,4.2,4.5,6.6
		c2.4,4.2,3.4,6.1,5.8,7.9l2.4,2.4c4,3.4,7.9,7.1,12.7,9.8c4.8,2.6,10.8,4.5,16.9,5c7.7,0.8,15.3,2.1,23-0.3
		c6.3,1.1,11.9-1.6,16.9-4.2c1.6-0.8,2.9-1.3,5.8-2.9c3.7-2.1,7.4-4,11.4-5c1.3-0.3,2.4-0.8,3.7-2.1c0.8-0.5,1.9-1.3,2.6-1.6
		c2.1-0.8,3.4-1.8,5.6-4.2c1.3-1.6,2.6-3.2,4.2-3.7c3.4-1.9,6.3-4.2,10.6-8.7c0.8-1.1,1.3-1.6,3.2-3.2c1.6-1.3,3.7-3.2,6.3-5.8
		c0.5-0.5,0.5-0.8,1.1-1.6c1.9-2.1,3.7-4.5,5.8-6.3c2.1-2.4,4-4.2,5.6-6.9c1.3-2.1,2.4-3.4,5-6.3c1.1-1.1,2.1-2.4,2.9-3.4
		c0.8-1.1,1.6-1.3,2.1-0.8c1.3,0.8,1.6,1.6,1.3,3.7c-0.8,1.1-1.3,1.9-2.4,3.7c-1.3,2.1-2.4,4.2-4,5.8c-2.1,2.4-3.7,4.8-6.9,9.3
		c-1.1,1.6-1.6,2.4-3.4,4.5c-1.1,1.1-2.4,2.4-3.2,3.4c-2.6,2.9-11.6,10.8-14,12.4c-1.9,1.3-4.2,2.9-5.3,5.3
		c-0.8,1.3-1.3,1.6-1.3,1.6c-3.2,0.5-5,2.1-6.9,3.7c-1.1,1.1-2.4,2.1-3.4,2.6c-3.7,1.9-7.7,3.4-10.3,6.3c-7.7,3.7-15.1,6.9-22.7,9
		c-3.4,0.5-6.3,1.6-9.5,2.6c-2.9,1.1-5,1.6-7.7,0.5C688.3,261.2,684.6,261.2,680.9,261.4z"/>
	<path class="st0" d="M871.8,190.6c-0.3,0.3-0.3,0.5-0.3,0.8l-0.3,0.3c-0.8,1.6-1.1,2.4-1.3,2.4l-9.3,12.7c-2.1,2.9-3.7,4.2-6.9,6.1
		c-0.3,0.3-1.1,0.5-1.3,0.5c-4.8,3.2-6.9,3.4-10.3,4.2c-1.3,0-2.9,0.5-4.5,0.8H835c-0.8-0.3-1.3-0.3-1.9-0.3
		c-6.9-1.1-9.3-3.4-13.5-9.8c-0.3-0.5-0.8-1.3-1.3-1.9c-0.3-0.5-2.4-0.8-3.4-0.5c-1.1,1.1-1.8,1.6-4,3.2l-3.7,2.9
		c-0.5,0.3-0.8,0.3-1.3,0.8c-1.1,0.8-2.1,1.6-3.2,1.9c-5,3.2-9,2.9-13.7-0.8c-2.1-1.6-2.9-2.9-2.6-5c0-1.6-0.3-2.9-0.3-4
		c-0.3-2.4-0.3-3.7,0.5-6.1l0.8-2.6c1.3-3.4,1.9-5,1.6-7.1c-0.3,0-0.3-0.8,0.5-1.9c2.1-3.4,4.2-6.9,6.1-10.8c2.4-3.7,4-4.8,8.2-6.9
		c0.8-1.1,1.1-1.3,2.9-2.4c0.8-0.3,2.1-0.8,2.6-1.6c2.1-1.6,3.4-1.8,5.6-1.6c7.1,1.1,11.1,4,13.8,9.5c0,0.5,0.5,1.1,0.8,1.6
		c0.5,1.1,0.8,1.6,0.8,2.9c-0.3,1.6-1.3,2.6-2.4,2.9c-1.6,0.3-2.9-0.5-3.2-2.1c-0.3-0.8-0.5-1.3-1.3-2.4c-0.5-0.5-0.8-0.8-0.8-1.6
		c-1.1-2.9-2.9-4-6.9-4.2c-4.2,0-7.4,1.3-9.5,3.7c-0.8,1.1-1.3,1.6-2.6,2.6c-1.3,1.1-2.6,2.4-3.7,4.2c-0.5,0.8-0.5,1.1-1.3,1.9
		c-1.9,2.4-2.4,3.2-2.4,4.8c0,0.8-0.3,1.6-0.5,2.1c-3.2,4.5-3.4,6.9-3.4,10.6c0,1.1-0.3,2.1-0.3,3.4c0,0.8,0.3,1.6,0.5,2.9
		c0,0.5,0.3,1.1,0.3,1.9c0.3,2.4,4.2,4.2,6.6,3.2c2.6-1.3,5.3-2.6,6.9-4.8c1.3-2.1,2.4-3.2,4-4.5c1.9-1.3,3.7-3.2,5.3-6.9l1.1-2.6
		c0.5-0.8,1.1-1.9,1.3-2.6c0.8-1.3,1.9-2.1,4-2.9c0.5-0.3,1.8,0.8,1.8,1.6c0.3,2.6,0.5,4,0,5c-1.3,5.3-0.8,9.8,2.1,14
		c1.3,2.6,4.5,4.8,8.2,5.3c1.9-0.3,3.4-0.5,5-1.1c3.4-0.5,9.3-1.1,14.8-6.9l3.2-3.2c1.8-1.3,3.7-2.6,5-4.8c0.5-1.1,1.1-1.3,1.9-2.9
		c0.8-1.6,1.8-3.2,2.9-4.5c0.3-0.5,0.5-0.8,1.1-1.3c0.3-0.5,0.8-1.1,1.1-1.3c0.5-0.8,1.6-0.5,2.9,0.5
		C872.3,188.5,872.3,189.5,871.8,190.6z"/>
	<path class="st0" d="M859.1,286.8c-3.2,0-5.3-1.8-6.6-5c-0.3-0.3-0.3-0.5-0.8-1.3c-0.3-0.5-0.3-0.8-0.3-1.1v0.3l-1.6-13.7
		c1.3-2.9,1.1-5.8,1.1-8.7c0-1.1,0.3-2.4,0.3-3.4c0.5-5,0.8-9.8,1.9-14.5l0.8-3.4c0.8-4,1.1-5.8,0.8-7.9c0-0.3,0.3-0.8,0.5-1.3
		c2.6-6.1,4.2-12.2,5-15.3c0.5-1.9,0.3-2.9-1.1-4.5c-0.5-0.5-0.8-1.3-0.5-2.4s0.5-1.3,2.6-2.9c1.3-0.8,3.4-2.1,3.7-3.4
		c0.3-1.6,0.8-2.4,1.6-4.5c1.1-2.4,2.4-5,2.4-7.7c0-1.3,0.5-2.6,1.8-5c1.9-3.4,2.6-5.3,2.1-7.1c0.3-0.8,0.5-1.3,0.8-2.9
		c0.5-1.9,0.8-3.2,1.3-3.7c2.9-4.2,4.5-7.1,4.2-12.2c0-1.1,0.5-2.4,0.8-2.9c1.9-2.4,2.9-5.3,5.8-13.2c1.6-4.5,3.2-9.3,4.5-11.4
		l3.2-5c2.9-3.7,5.3-6.1,8.2-7.4c2.4-1.6,3.7-1.6,6.1-0.5c2.9,1.1,4,2.9,3.7,5.8c0,2.9,0.3,5.8-1.1,8.5c-0.3,0.8-0.3,1.3-0.5,2.6
		c0,1.1-0.3,1.8-0.5,2.6c-0.3,2.4-0.8,3.7-1.3,4.5c-1.9,1.8-2.4,3.2-3.7,6.9c-1.3,3.7-3.2,9-9.3,17.2c-0.8,1.1-1.3,1.9-2.6,3.4
		c-1.9,2.1-3.7,4.2-4.8,6.9c-1.3,3.2-3.2,5.6-6.6,8.5c-1.3,1.1-1.9,1.6-2.9,3.4c-1.1,1.3-2.4,2.9-4,4.5c-0.5,0-1.1,0.5-1.3,1.3
		l-0.3,0.3l-3.2,9c-0.3,1.6,0.8,3.2,2.4,3.7c1.8,1.3,5.8,2.1,10.3,1.9h1.6c10.6-0.3,20.9-3.2,27.5-7.4c5.8-3.7,6.3-3.7,11.4-9.3
		c1.1-1.3,1.6-1.9,2.6-1.9c1.6,0,1.6,0,2.1,0.8c0.5,0.5,0.5,2.9,0,3.7l-1.3,2.1c-1.6,2.1-2.6,3.2-6.6,6.1c-4.8,3.7-8.7,5.3-13.7,7.4
		l-2.9,1.1c-3.7,1.6-9.5,2.1-13.2,2.1h-3.2c-1.6,0.3-3.2,0.3-5.6,0.3c0,1.9,0.8,2.6,2.6,4l0.8,0.8c2.1,2.1,3.4,5,4.8,7.9
		c0.5,1.3,0.8,2.1,0.5,2.9v0.5c-0.5,1.9-0.5,2.6-0.3,3.4c1.6,3.4,1.6,7.4,1.3,11.4v3.2c0,1.9-0.3,3.4-0.5,5c-0.5,4.8-0.5,6.9,0,9.5
		c-0.3,0.8-0.5,1.6-0.8,3.4c-1.1,3.4-1.8,6.6-3.4,9.3l-1.6,2.4c-1.3,1.6-2.4,3.4-3.2,5c-1.1,1.6-1.9,2.6-4,3.4l-7.1,3.7
		c-2.6,1.6-4.2,1.6-6.3,1.1C862.5,286.5,860.7,286.5,859.1,286.8z M869.9,281.8c4-3.4,8.2-6.9,10-12.4c2.9-9.3,6.1-18,4.5-25.6
		v-12.4c0.3-1.9,0-3.2-1.3-4.5c-1.1-1.1-1.6-2.4-2.4-4.5c-0.5-1.9-1.8-4-2.9-6.1c-0.5-1.1-0.5-1.3-1.1-1.8c-0.8-1.9-3.2-2.9-4.8-3.7
		c-1.3,0.3-1.8,0.3-3.2,0.3c-3.2,0-4.2,0.8-4.8,3.7c-0.3,1.3-0.5,2.6-1.1,4.2c-1.1,3.7-1.3,5.6-1.1,7.7c0.3,0.5,0,1.6-0.3,1.9
		c-3.2,3.2-2.9,6.9-2.9,10.6c0,2.4,0,3.7-0.5,4.8c-0.8,2.4-1.1,4.2-1.1,8.7c-0.3,1.1-0.3,1.8-0.3,2.9v4.2c0,3.2,0,6.3-1.1,9.5
		c-1.6,6.1,2.1,12.2,8.7,13.7C866.2,283.1,868.9,283.1,869.9,281.8z M882.1,170.8c4-4,9-11.1,11.9-15.1c0.3-0.5,0.3-0.8,0.8-1.6
		c0.8-1.3,1.3-2.1,1.6-2.9c5-8.5,7.7-20.4,8.7-26.2c0-0.3-0.3-1.1-0.5-1.1c-0.5-0.8-1.8-0.8-2.9-0.8c-3.2,2.1-5,4.2-5.8,6.9
		c-0.5,1.8-1.3,3.4-2.1,4.2c-2.4,3.4-6.6,14-6.9,16.9c0,1.6-0.5,2.9-1.9,5.6l-1.6,2.4c-2.1,2.9-2.6,4.5-2.4,6.6
		c-0.8,1.1-1.3,2.9-1.6,4.2c-0.3,0.8-2.1,5-1.3,5.6C880,175.5,881.6,171,882.1,170.8z"/>
	<path class="st0" d="M923.6,208.6c-2.1-4.8-2.6-7.7-2.1-10.6c0.3-1.8,0.5-3.2,0.8-5.8c0.3-3.4,0.5-6.6,2.1-9.8
		c0.3-1.1,0.5-1.6,1.3-3.4c0.3-1.1,0.8-2.4,1.3-3.4c1.6-4,3.7-6.9,6.1-9c4-3.4,7.1-4.8,11.1-4.5c1.6,0,2.9,0.5,4.5,2.1
		c2.9,2.9,3.4,5.3,1.6,8.2c-1.1,2.6-1.6,4.5-1.6,6.1c-0.8,6.3-4.8,9.8-9.3,13.5c-1.1,0.5-1.6,1.1-4,1.8c-6.3,2.6-7.9,1.3-6.3,11.6
		c1.1,2.9,3.2,5,7.1,6.9c7.9,3.4,12.2,2.6,18,0l2.6-1.1c1.6-0.5,2.9-1.3,4.5-1.6c0.8-0.3,1.8-0.8,2.6-1.3c2.1-1.6,3.4-2.6,6.3-4.5
		c3.4-2.1,6.9-4.2,10.3-8.5l4-5c0.8-1.3,2.6-2.9,3.4-3.7c0.8-0.5,1.3-0.5,2.4,0.5c0.5,0,0.8,1.3,0.3,2.6c-0.3,0.3-0.5,0.8-0.8,1.6
		c-0.5,1.3-0.8,2.1-1.1,2.1c-1.9,2.4-2.6,3.4-4.8,5.6c-0.8,1.1-2.1,2.4-3.4,3.7c-2.9,3.4-6.1,6.1-9.8,7.7c-2.1,1.1-4.5,1.9-5.8,3.4
		c-7.4,4.5-11.6,4.8-19,5.6h-1.3C936.3,219.9,927.3,215.2,923.6,208.6z M933.6,189.5c3.2-1.3,5.6-3.7,6.3-6.1
		c0.5-1.6,1.1-2.4,1.8-3.7c2.1-2.6,2.6-4,2.6-5.8v-1.3c0-2.9-1.1-4.8-3.2-4.8c-1.3-0.3-2.6,0.3-3.7,1.6c-0.8,0.5-0.8,0.8-0.8,0.8
		c-1.6,1.3-2.4,2.4-3.7,5c-0.5,1.1-0.3,0.8-0.5,1.1c-1.3,1.8-1.9,3.4-2.4,7.1c-0.3,1.3-0.5,2.9-1.1,4.2c0,0.5,0,1.3,0.3,1.8
		C929.4,190.8,932.8,190.3,933.6,189.5z"/>
</g>
</svg>
